<?xml version="1.0" encoding="UTF-8"?>
<svg width="74px" height="55px" viewBox="0 0 74 55" version="1.1" xmlns="http://www.w3.org/2000/svg" xmlns:xlink="http://www.w3.org/1999/xlink">
    <!-- Generator: Sketch 46.2 (44496) - http://www.bohemiancoding.com/sketch -->
    <title>Group 26</title>
    <desc>Created with Sketch.</desc>
    <defs>
        <linearGradient x1="100%" y1="0%" x2="-9.79523549%" y2="109.413207%" id="linearGradient-1">
            <stop stop-color="#6A11CB" offset="0%"></stop>
            <stop stop-color="#2575FC" offset="100%"></stop>
        </linearGradient>
    </defs>
    <g id="Page-1" stroke="none" stroke-width="1" fill="none" fill-rule="evenodd">
        <g id="Group-26" stroke="url(#linearGradient-1)" stroke-width="2">
            <path d="M24,38.0644222 L24,53 L73,53 L73,32 L61.8863724,32 L61.8863724,36.0644222 C61.8863724,37.1689917 60.9909419,38.0644222 59.8863724,38.0644222 L24,38.0644222 Z" id="Rectangle-22"></path>
            <path d="M29,38 L29,47 L38,47 L38,38 L29,38 Z M44,38 L44,47 L53,47 L53,38 L44,38 Z M59,38 L59,47 L68,47 L68,38 L59,38 Z" id="Combined-Shape"></path>
            <g id="Group-23" transform="translate(12.000000, 16.000000)">
                <path d="M1,5.95761557 L1,22 L50,22 L50,1 L37.927115,1 L37.927115,3.95761557 C37.927115,5.06218507 37.0316845,5.95761557 35.927115,5.95761557 L1,5.95761557 Z" id="Rectangle-22"></path>
                <path d="M15,16.5 L6,16.5 L10.5,8 L15,16.5 Z M30,16.5 L21,16.5 L25.5,8 L30,16.5 Z M45,16.5 L36,16.5 L40.5,8 L45,16.5 Z" id="Combined-Shape"></path>
            </g>
            <g id="Group-23">
                <rect id="Rectangle-22" x="1" y="1" width="49" height="21" rx="1"></rect>
                <path d="M10.5,17 C7.46243388,17 5,14.5375661 5,11.5 C5,8.46243388 7.46243388,6 10.5,6 C13.5375661,6 16,8.46243388 16,11.5 C16,14.5375661 13.5375661,17 10.5,17 Z M25.5,17 C22.4624339,17 20,14.5375661 20,11.5 C20,8.46243388 22.4624339,6 25.5,6 C28.5375661,6 31,8.46243388 31,11.5 C31,14.5375661 28.5375661,17 25.5,17 Z M40.5,17 C37.4624339,17 35,14.5375661 35,11.5 C35,8.46243388 37.4624339,6 40.5,6 C43.5375661,6 46,8.46243388 46,11.5 C46,14.5375661 43.5375661,17 40.5,17 Z" id="Combined-Shape"></path>
            </g>
        </g>
    </g>
</svg>