<svg width="74px" height="55px" viewBox="0 0 74 55">
  <defs>
    <linearGradient x1="1" y1="0" x2="-0.09795235633850098" y2="1.094132080078125" id="linear-gradient-batch">
      <stop stop-color="#6A11CB" offset="0"/>
      <stop stop-color="#2575FC" offset="1"/>
    </linearGradient>
  </defs>
  <title>Batch</title>
  <g stroke="url(#linear-gradient-batch)" fill="none" stroke-width="2">
    <path d="M24,38.0644222 L24,53 L73,53 L73,32 L61.8863724,32 L61.8863724,36.0644222 C61.8863724,37.1689917 60.9909419,38.0644222 59.8863724,38.0644222 L24,38.0644222 Z"/>
    <path d="M29,38 L29,47 L38,47 L38,38 L29,38 Z M44,38 L44,47 L53,47 L53,38 L44,38 Z M59,38 L59,47 L68,47 L68,38 L59,38 Z"/>
    <path d="M 13 21.958 L 13 38 L 62 38 L 62 17 L 49.927 17 L 49.927 19.958 C 49.927 21.062 49.032 21.958 47.927 21.958 L 13 21.958 Z"/>
    <path d="M 27 32.5 L 18 32.5 L 22.5 24 L 27 32.5 Z M 42 32.5 L 33 32.5 L 37.5 24 L 42 32.5 Z M 57 32.5 L 48 32.5 L 52.5 24 L 57 32.5 Z"/>
    <rect x="1" y="1" width="49" height="21" rx="1"/>
    <path d="M 10.5 17 C 7.462 17 5 14.538 5 11.5 C 5 8.462 7.462 6 10.5 6 C 13.538 6 16 8.462 16 11.5 C 16 14.538 13.538 17 10.5 17 Z M 25.5 17 C 22.462 17 20 14.538 20 11.5 C 20 8.462 22.462 6 25.5 6 C 28.538 6 31 8.462 31 11.5 C 31 14.538 28.538 17 25.5 17 Z M 40.5 17 C 37.462 17 35 14.538 35 11.5 C 35 8.462 37.462 6 40.5 6 C 43.538 6 46 8.462 46 11.5 C 46 14.538 43.538 17 40.5 17 Z"/>
  </g>
</svg>
