<svg width="47px" height="35px" viewBox="0 0 47 35" version="1.1" xmlns="http://www.w3.org/2000/svg" xmlns:xlink="http://www.w3.org/1999/xlink">    <!-- Generator: Sketch 46.2 (44496) - http://www.bohemiancoding.com/sketch -->    <title>Group 3</title>    <desc>Created with Sketch.</desc>    <defs></defs>    <g id="Page-1" stroke="none" stroke-width="1" fill="none" fill-rule="evenodd">        <g id="Desktop-Copy" transform="translate(-233.000000, -1427.000000)" stroke="#1B1B63">            <g id="Group-3" transform="translate(233.000000, 1427.000000)">                <path d="M46.5,0.967482471 C46.6523301,0.979604072 46.8046601,0.992240947 46.9569901,1.00539309 L46.5,0.507246377 L46.5,0.967482471 Z M46.5,32.4281354 L46.5,32.9710145 L47.0430099,32.4728678 C46.8620066,32.45724 46.6810033,32.4423292 46.5,32.4281354 Z M23.5,34.4836142 C23.4582092,34.4943624 23.4164184,34.5051488 23.3746277,34.5159734 L23.6253723,34.5159734 C23.5835816,34.5051488 23.5417908,34.4943624 23.5,34.4836142 Z M0.5,32.4281354 C0.318996736,32.4423292 0.137993429,32.45724 -0.0430098921,32.4728678 L0.5,32.9710145 L0.5,32.4281354 Z M0.5,0.967482471 L0.5,0.507246377 L0.0430098921,1.00539309 C0.195339912,0.992240947 0.347669942,0.979604072 0.5,0.967482471 Z M0.5,0.967482471 C8.12406215,0.36080093 15.7481941,1.04486408 23.3746277,3.02025852 L23.5,3.05273238 L23.6253723,3.02025852 C31.2518059,1.04486408 38.8759379,0.36080093 46.5,0.967482471 L46.5,32.4281354 C38.8325328,31.8268731 31.1651418,32.5122231 23.5,34.4836142 C15.8348582,32.5122231 8.16746717,31.8268731 0.5,32.4281354 L0.5,0.967482471 Z" id="Rectangle-5"></path>                <path d="M23.5,3 L23.5,34" id="Line-2" stroke-linecap="square"></path>                <g id="Group-4" transform="translate(4.000000, 6.000000)" stroke-linecap="round">                    <path d="M15.8145637,3.05421026 C10.647897,1.14229545 5.48123036,0.511250882 0.31456369,1.16107654" id="Line-2"></path>                    <path d="M15.8145637,8.05421026 C10.647897,6.14229545 5.48123036,5.51125088 0.31456369,6.16107654" id="Line-2"></path>                    <path d="M15.8145637,13.0542103 C10.647897,11.1422955 5.48123036,10.5112509 0.31456369,11.1610765" id="Line-2"></path>                    <path d="M15.8145637,18.0542103 C10.647897,16.1422955 5.48123036,15.5112509 0.31456369,16.1610765" id="Line-2"></path>                    <path d="M15.8145637,23.0542103 C10.647897,21.1422955 5.48123036,20.5112509 0.31456369,21.1610765" id="Line-2"></path>                </g>                <g id="Group-4" transform="translate(35.000000, 18.000000) scale(-1, 1) translate(-35.000000, -18.000000) translate(27.000000, 6.000000)" stroke-linecap="round">                    <path d="M15.8145637,3.05421026 C10.647897,1.14229545 5.48123036,0.511250882 0.31456369,1.16107654" id="Line-2"></path>                    <path d="M15.8145637,8.05421026 C10.647897,6.14229545 5.48123036,5.51125088 0.31456369,6.16107654" id="Line-2"></path>                    <path d="M15.8145637,13.0542103 C10.647897,11.1422955 5.48123036,10.5112509 0.31456369,11.1610765" id="Line-2"></path>                    <path d="M15.8145637,18.0542103 C10.647897,16.1422955 5.48123036,15.5112509 0.31456369,16.1610765" id="Line-2"></path>                    <path d="M15.8145637,23.0542103 C10.647897,21.1422955 5.48123036,20.5112509 0.31456369,21.1610765" id="Line-2"></path>                </g>            </g>        </g>    </g></svg>