<?xml version="1.0" encoding="UTF-8"?>
<svg width="47px" height="35px" viewBox="0 0 47 35" version="1.1" xmlns="http://www.w3.org/2000/svg" xmlns:xlink="http://www.w3.org/1999/xlink">
    <!-- Generator: Sketch 46.2 (44496) - http://www.bohemiancoding.com/sketch -->
    <title>Group 3</title>
    <desc>Created with Sketch.</desc>
    <defs>
        <linearGradient x1="100%" y1="0%" x2="-9.79523549%" y2="109.413207%" id="linearGradient-1">
            <stop stop-color="#6A11CB" offset="0%"></stop>
            <stop stop-color="#2575FC" offset="100%"></stop>
        </linearGradient>
    </defs>
    <g id="Page-1" stroke="none" stroke-width="1" fill="none" fill-rule="evenodd">
        <g id="Group-3" stroke="url(#linearGradient-1)" stroke-width="2">
            <path d="M23.5406136,4.20180904 L23.5406136,33.201809" id="Line-2" stroke-linecap="square"></path>
            <path d="M1,1.43085591 L1,31.8894965 C8.50156687,31.3598205 16.0028947,32.0528223 23.5,33.9674549 C30.9971053,32.0528223 38.4984331,31.3598205 46,31.8894965 L46,1.43085591 C38.5852016,0.891731347 31.1701823,1.58250667 23.7507446,3.50428516 L23.5,3.56923288 L23.2492554,3.50428516 C15.8298177,1.58250667 8.41479838,0.891731347 1,1.43085591 Z" id="Rectangle-5"></path>
            <g id="Group-4" transform="translate(4.000000, 6.000000)" stroke-linecap="round">
                <path d="M15.8145637,3.05421026 C10.647897,1.14229545 5.48123036,0.511250882 0.31456369,1.16107654" id="Line-2"></path>
                <path d="M15.8145637,8.05421026 C10.647897,6.14229545 5.48123036,5.51125088 0.31456369,6.16107654" id="Line-2"></path>
                <path d="M15.8145637,13.0542103 C10.647897,11.1422955 5.48123036,10.5112509 0.31456369,11.1610765" id="Line-2"></path>
                <path d="M15.8145637,18.0542103 C10.647897,16.1422955 5.48123036,15.5112509 0.31456369,16.1610765" id="Line-2"></path>
                <path d="M15.8145637,23.0542103 C10.647897,21.1422955 5.48123036,20.5112509 0.31456369,21.1610765" id="Line-2"></path>
            </g>
            <g id="Group-4" transform="translate(35.000000, 18.000000) scale(-1, 1) translate(-35.000000, -18.000000) translate(27.000000, 6.000000)" stroke-linecap="round">
                <path d="M15.8145637,3.05421026 C10.647897,1.14229545 5.48123036,0.511250882 0.31456369,1.16107654" id="Line-2"></path>
                <path d="M15.8145637,8.05421026 C10.647897,6.14229545 5.48123036,5.51125088 0.31456369,6.16107654" id="Line-2"></path>
                <path d="M15.8145637,13.0542103 C10.647897,11.1422955 5.48123036,10.5112509 0.31456369,11.1610765" id="Line-2"></path>
                <path d="M15.8145637,18.0542103 C10.647897,16.1422955 5.48123036,15.5112509 0.31456369,16.1610765" id="Line-2"></path>
                <path d="M15.8145637,23.0542103 C10.647897,21.1422955 5.48123036,20.5112509 0.31456369,21.1610765" id="Line-2"></path>
            </g>
        </g>
    </g>
</svg>