<svg width="70px" height="57px" viewBox="0 0 70 57">
  <defs>
    <linearGradient x1="1" y1="0" x2="-0.09795235633850098" y2="1.094132080078125" id="linear-gradient-graph">
      <stop stop-color="#6A11CB" offset="0"/>
      <stop stop-color="#2575FC" offset="1"/>
    </linearGradient>
  </defs>
  <path d="M 7.5 44 C 4.462 44 2 46.462 2 49.5 C 2 52.538 4.462 55 7.5 55 C 10.538 55 13 52.538 13 49.5 C 13 46.462 10.538 44 7.5 44 Z M 7.5 12 C 4.462 12 2 14.462 2 17.5 C 2 20.538 4.462 23 7.5 23 C 10.538 23 13 20.538 13 17.5 C 13 14.462 10.538 12 7.5 12 Z M 22.5 28 C 19.462 28 17 30.462 17 33.5 C 17 36.538 19.462 39 22.5 39 C 25.538 39 28 36.538 28 33.5 C 28 30.462 25.538 28 22.5 28 Z M 42.5 28 C 39.462 28 37 30.462 37 33.5 C 37 36.538 39.462 39 42.5 39 C 45.538 39 48 36.538 48 33.5 C 48 30.462 45.538 28 42.5 28 Z M 42.5 2 C 39.462 2 37 4.462 37 7.5 C 37 10.538 39.462 13 42.5 13 C 45.538 13 48 10.538 48 7.5 C 48 4.462 45.538 2 42.5 2 Z M 62.5 28 C 59.462 28 57 30.462 57 33.5 C 57 36.538 59.462 39 62.5 39 C 65.538 39 68 36.538 68 33.5 C 68 30.462 65.538 28 62.5 28 Z" stroke="url(#linear-gradient-graph)" stroke-width="2.5" style="fill: none"/>
  <path d="M 56.913 33.587 L 57.913 33.587 L 57.913 31.587 L 56.913 31.587 L 48.913 31.587 L 47.913 31.587 L 47.913 33.587 L 48.913 33.587 L 56.913 33.587 Z M 36.913 33.587 L 37.913 33.587 L 37.913 31.587 L 36.913 31.587 L 28.913 31.587 L 27.913 31.587 L 27.913 33.587 L 28.913 33.587 L 36.913 33.587 Z M 11.68 43.906 L 11 44.639 L 12.466 46 L 13.146 45.267 L 19.646 38.267 L 20.326 37.534 L 18.861 36.174 L 18.18 36.906 L 11.68 43.906 Z M 11.68 22.267 L 18.18 29.267 L 18.861 30 L 20.326 28.639 L 19.646 27.906 L 13.146 20.906 L 12.466 20.174 L 11 21.534 L 11.68 22.267 Z M 43.913 13.587 L 43.913 12.587 L 41.913 12.587 L 41.913 13.587 L 41.913 26.587 L 41.913 27.587 L 43.913 27.587 L 43.913 26.587 L 43.913 13.587 Z M 47.319 12.02 L 47.319 11.02 L 45.579 12.002 L 45.579 13.002 L 59.471 29.414 L 59.471 30.414 L 61.211 29.431 L 61.211 28.431 L 47.319 12.02 Z" fill="url(#linear-gradient-graph)"/>
</svg>
