<?xml version="1.0" encoding="UTF-8"?>
<svg width="70px" height="57px" viewBox="0 0 70 57" version="1.1" xmlns="http://www.w3.org/2000/svg" xmlns:xlink="http://www.w3.org/1999/xlink">
    <!-- Generator: Sketch 46.2 (44496) - http://www.bohemiancoding.com/sketch -->
    <title>Group 28</title>
    <desc>Created with Sketch.</desc>
    <defs>
        <linearGradient x1="100%" y1="0%" x2="-9.79523549%" y2="109.413207%" id="linearGradient-1">
            <stop stop-color="#6A11CB" offset="0%"></stop>
            <stop stop-color="#2575FC" offset="100%"></stop>
        </linearGradient>
    </defs>
    <g id="Page-1" stroke="none" stroke-width="1" fill="none" fill-rule="evenodd">
        <g id="Group-28" transform="translate(35.000000, 28.500000) scale(1, -1) translate(-35.000000, -28.500000) translate(2.000000, 2.000000)">
            <path d="M5.5,11 C2.46243388,11 0,8.53756612 0,5.5 C0,2.46243388 2.46243388,0 5.5,0 C8.53756612,0 11,2.46243388 11,5.5 C11,8.53756612 8.53756612,11 5.5,11 Z M5.5,43 C2.46243388,43 0,40.5375661 0,37.5 C0,34.4624339 2.46243388,32 5.5,32 C8.53756612,32 11,34.4624339 11,37.5 C11,40.5375661 8.53756612,43 5.5,43 Z M20.5,27 C17.4624339,27 15,24.5375661 15,21.5 C15,18.4624339 17.4624339,16 20.5,16 C23.5375661,16 26,18.4624339 26,21.5 C26,24.5375661 23.5375661,27 20.5,27 Z M40.5,27 C37.4624339,27 35,24.5375661 35,21.5 C35,18.4624339 37.4624339,16 40.5,16 C43.5375661,16 46,18.4624339 46,21.5 C46,24.5375661 43.5375661,27 40.5,27 Z M40.5,53 C37.4624339,53 35,50.5375661 35,47.5 C35,44.4624339 37.4624339,42 40.5,42 C43.5375661,42 46,44.4624339 46,47.5 C46,50.5375661 43.5375661,53 40.5,53 Z M60.5,27 C57.4624339,27 55,24.5375661 55,21.5 C55,18.4624339 57.4624339,16 60.5,16 C63.5375661,16 66,18.4624339 66,21.5 C66,24.5375661 63.5375661,27 60.5,27 Z" id="Combined-Shape" stroke="url(#linearGradient-1)" stroke-width="2.5"></path>
            <path d="M54.9132446,21.4132446 L55.9132446,21.4132446 L55.9132446,23.4132446 L54.9132446,23.4132446 L46.9132446,23.4132446 L45.9132446,23.4132446 L45.9132446,21.4132446 L46.9132446,21.4132446 L54.9132446,21.4132446 Z M34.9132446,21.4132446 L35.9132446,21.4132446 L35.9132446,23.4132446 L34.9132446,23.4132446 L26.9132446,23.4132446 L25.9132446,23.4132446 L25.9132446,21.4132446 L26.9132446,21.4132446 L34.9132446,21.4132446 Z M9.6804511,11.0936957 L9,10.3609022 L10.465587,9 L11.1460381,9.73279349 L17.6460381,16.7327935 L18.3264892,17.465587 L16.8609022,18.8264892 L16.1804511,18.0936957 L9.6804511,11.0936957 Z M9.6804511,32.7327935 L16.1804511,25.7327935 L16.8609022,25 L18.3264892,26.3609022 L17.6460381,27.0936957 L11.1460381,34.0936957 L10.465587,34.8264892 L9,33.465587 L9.6804511,32.7327935 Z M41.9132446,41.4132446 L41.9132446,42.4132446 L39.9132446,42.4132446 L39.9132446,41.4132446 L39.9132446,28.4132446 L39.9132446,27.4132446 L41.9132446,27.4132446 L41.9132446,28.4132446 L41.9132446,41.4132446 Z M45.3192281,42.9804565 L45.3192281,43.9804565 L43.5792182,42.9982412 L43.5792182,41.9982412 L57.4707042,25.5864296 L57.4707042,24.5864296 L59.2107141,25.5686449 L59.2107141,26.5686449 L45.3192281,42.9804565 Z" id="Combined-Shape" fill="url(#linearGradient-1)"></path>
        </g>
    </g>
</svg>