<?xml version="1.0" encoding="UTF-8"?>
<svg width="74px" height="55px" viewBox="0 0 74 55" version="1.1" xmlns="http://www.w3.org/2000/svg" xmlns:xlink="http://www.w3.org/1999/xlink">
    <!-- Generator: Sketch 46.2 (44496) - http://www.bohemiancoding.com/sketch -->
    <title>Group 25</title>
    <desc>Created with Sketch.</desc>
    <defs>
        <linearGradient x1="100%" y1="0%" x2="-9.79523549%" y2="109.413207%" id="linearGradient-1">
            <stop stop-color="#6A11CB" offset="0%"></stop>
            <stop stop-color="#2575FC" offset="100%"></stop>
        </linearGradient>
    </defs>
    <g id="Page-1" stroke="none" stroke-width="1" fill="none" fill-rule="evenodd">
        <g id="Group-25" transform="translate(4.000000, 0.000000)" stroke="url(#linearGradient-1)" stroke-width="2.5">
            <path d="M46.5552496,24.7917757 L46.8498292,23.9583333 L47.7337994,23.9583333 L55.1293375,23.9583333 L55.4239171,24.7917757 C55.6835883,25.5264532 56.0947082,26.1987946 56.6284017,26.7669381 L57.3453243,27.5301382 L45.1404692,43.9064907 L44.1684354,43.3151515 C43.5630573,42.9468682 42.8933156,42.6959875 42.1890135,42.577828 L41.1458333,42.4028156 L41.1458333,28.6388511 L42.1890135,28.4638386 C44.2020999,28.1261067 45.8780441,26.7077663 46.5552496,24.7917757 Z M9.82142434,11.72766 L10.4132227,11.248119 C11.7247321,10.185388 12.5,8.59507514 12.5,6.875 C12.5,3.76839828 9.98160172,1.25 6.875,1.25 C3.76839828,1.25 1.25,3.76839828 1.25,6.875 C1.25,9.98160172 3.76839828,12.5 6.875,12.5 C7.66168958,12.5 8.42350868,12.3391489 9.12672887,12.03154 L9.82142434,11.72766 Z M10.891117,34.9422164 L10.2620781,34.4669309 C9.29336344,33.7349951 8.11629532,33.3333333 6.875,33.3333333 C3.76839828,33.3333333 1.25,35.8517316 1.25,38.9583333 C1.25,42.0649351 3.76839828,44.5833333 6.875,44.5833333 C9.98160172,44.5833333 12.5,42.0649351 12.5,38.9583333 C12.5,37.717038 12.0983382,36.5399699 11.3664024,35.5712552 L10.891117,34.9422164 Z M35.625,23.9583333 L35.6501708,23.9583333 L35.9447504,24.7917757 C36.6219559,26.7077663 38.2979001,28.1261067 40.3109865,28.4638386 L41.3541667,28.6388511 L41.3541667,42.4028156 L40.3109865,42.577828 C37.622921,43.0288 35.625,45.3677995 35.625,48.125 C35.625,51.2316017 38.1433983,53.75 41.25,53.75 C44.3566017,53.75 46.875,51.2316017 46.875,48.125 C46.875,46.6734127 46.3245478,45.3113693 45.350765,44.2747286 L44.6338423,43.5115285 L56.8386974,27.135176 L57.8107312,27.7265152 C58.6830216,28.2571752 59.6836686,28.5416667 60.7291667,28.5416667 C63.8357684,28.5416667 66.3541667,26.0232684 66.3541667,22.9166667 C66.3541667,19.8100649 63.8357684,17.2916667 60.7291667,17.2916667 C57.6225649,17.2916667 55.1041667,19.8100649 55.1041667,22.9166667 L55.1041667,24.1666667 L46.875,24.1666667 L46.875,22.9166667 C46.875,19.8100649 44.3566017,17.2916667 41.25,17.2916667 C38.1433983,17.2916667 35.625,19.8100649 35.625,22.9166667 L35.625,23.9583333 Z M27.3958333,23.9583333 L27.3958333,22.9166667 C27.3958333,19.8100649 24.8774351,17.2916667 21.7708333,17.2916667 C20.2799584,17.2916667 18.8839236,17.8725696 17.839058,18.894006 L17.3059299,19.4151796 L16.9270305,20.0547892 C16.4180394,20.9140032 16.1458333,21.8939127 16.1458333,22.9166667 C16.1458333,24.3891182 16.7123526,25.7692367 17.7113558,26.8104273 L18.2617966,27.3841128 L18.9469111,27.7827535 C19.7971993,28.2775022 20.7632496,28.5416667 21.7708333,28.5416667 C24.1740144,28.5416667 26.2882822,27.0206689 27.0760829,24.7917757 L27.3706625,23.9583333 L27.3958333,23.9583333 Z" id="Combined-Shape"></path>
        </g>
    </g>
</svg>