<svg width="50px" height="57px" viewBox="0 0 50 57">
    <defs>
        <linearGradient x1="100%" y1="0%" x2="-9.79523549%" y2="109.413207%" id="linear-gradient-hex">
            <stop stop-color="#6A11CB" offset="0%"></stop>
            <stop stop-color="#2575FC" offset="100%"></stop>
        </linearGradient>
    </defs>
    <path d="M45.2236619,19.2697516 L45.2220479,19.2697516 L45.220434,19.2697516 C43.8524458,19.2687744 42.7391397,18.1449363 42.7391397,16.7634298 C42.7391397,15.3819233 43.8530914,14.2571079 45.2220479,14.2571079 C46.59165,14.2571079 47.7056017,15.3819233 47.7056017,16.7634298 C47.7056017,18.1449363 46.5919728,19.2687744 45.2236619,19.2697516 L45.2236619,19.2697516 Z M47.7056017,40.1356791 C47.7056017,41.5181628 46.59165,42.6420009 45.2220479,42.6420009 C43.8530914,42.6420009 42.7391397,41.5181628 42.7391397,40.1356791 C42.7391397,38.7548241 43.8514774,37.6316375 45.2191428,37.6300087 C45.220434,37.6300087 45.2210795,37.6303345 45.2220479,37.6303345 C45.2233391,37.6303345 45.2236619,37.6300087 45.2246302,37.6300087 C46.593264,37.6316375 47.7056017,38.7548241 47.7056017,40.1356791 L47.7056017,40.1356791 Z M41.78271,36.7973913 L29.8271777,29.763142 C29.9566169,29.326311 30.0282765,28.8643973 30.0282765,28.3855445 C30.0282765,27.9148355 29.9575853,27.460414 29.8326652,27.0294465 L41.7672161,20.0847786 C42.3843924,20.7382334 43.1797494,21.2148059 44.0748488,21.4385963 L44.0748488,35.4611641 C43.1874964,35.6826742 42.3979496,36.1527317 41.78271,36.7973913 L41.78271,36.7973913 Z M28.4378853,48.6110471 C27.8245825,47.968342 27.0376181,47.4999133 26.1531708,47.2771002 L26.3045597,33.0857938 C27.2151531,32.8776394 28.0279408,32.4082334 28.6599655,31.7573846 L40.6345425,38.8027094 C40.5138187,39.2268361 40.4447414,39.6731138 40.4447414,40.1356791 C40.4447414,40.6093198 40.5154326,41.0666731 40.6426123,41.4995951 L28.4378853,48.6110471 Z M24.9998386,54.4569598 C23.6305593,54.4569598 22.5162848,53.3321444 22.5162848,51.9506379 C22.5162848,50.5688057 23.6305593,49.4443161 24.9998386,49.4443161 C26.3694407,49.4443161 27.4837152,50.5688057 27.4837152,51.9506379 C27.4837152,53.3321444 26.3694407,54.4569598 24.9998386,54.4569598 L24.9998386,54.4569598 Z M21.5617919,48.6110471 L9.35738772,41.5002466 C9.48392178,41.0673246 9.55525859,40.6106228 9.55525859,40.1366563 C9.55525859,39.6757198 9.4868269,39.2317223 9.36707145,38.8095501 L21.7770935,31.6860453 C22.3752251,32.3271216 23.1437905,32.8007624 24.0101615,33.037257 L23.8590953,47.2738427 C22.9694833,47.4953528 22.1779999,47.9654103 21.5617919,48.6110471 L21.5617919,48.6110471 Z M5.92418285,35.4611641 L5.92418285,21.4385963 C6.82154178,21.2141544 7.61851271,20.7356274 8.23665743,20.0795665 L20.6444199,27.1232626 C20.5362849,27.5268671 20.4730179,27.9487135 20.4730179,28.3855445 C20.4730179,28.8305193 20.5378989,29.259858 20.6499074,29.669326 L8.22148626,36.8035805 C7.60592386,36.1563149 6.81444038,35.6836514 5.92418285,35.4611641 L5.92418285,35.4611641 Z M4.7773065,42.6429782 C3.40834996,42.6429782 2.29407549,41.5181628 2.29407549,40.1366563 C2.29407549,38.7541726 3.40834996,37.6303345 4.7773065,37.6303345 C6.14658584,37.6303345 7.2608603,38.7541726 7.2608603,40.1366563 C7.2608603,41.5181628 6.14658584,42.6429782 4.7773065,42.6429782 L4.7773065,42.6429782 Z M2.29407549,16.7634298 C2.29407549,15.3819233 3.40834996,14.2571079 4.7773065,14.2571079 C6.14658584,14.2571079 7.2608603,15.3819233 7.2608603,16.7634298 C7.2608603,18.1449363 6.14723142,19.2687744 4.77827488,19.2697516 L4.7773065,19.2697516 L4.77601534,19.2697516 C3.40770438,19.2687744 2.29407549,18.1449363 2.29407549,16.7634298 L2.29407549,16.7634298 Z M21.5617919,8.16134489 C22.1779999,8.80665599 22.9694833,9.27703924 23.8590953,9.49789786 L24.0101615,23.735135 C23.1363663,23.9726069 22.3629591,24.4530884 21.7622451,25.1019828 L9.37255889,18.0680592 C9.48844086,17.652402 9.55525859,17.215571 9.55525859,16.7634298 C9.55525859,16.2497217 9.47326968,15.7549072 9.32478583,15.2903875 L21.5617919,8.16134489 Z M24.9998386,2.31543225 C26.3694407,2.31543225 27.4837152,3.4389446 27.4837152,4.82110259 C27.4837152,6.20326059 26.3694407,7.32742444 24.9998386,7.32742444 C23.6305593,7.32742444 22.5162848,6.20326059 22.5162848,4.82110259 C22.5162848,3.4389446 23.6305593,2.31543225 24.9998386,2.31543225 L24.9998386,2.31543225 Z M27.7338782,28.3855445 C27.7338782,29.7677025 26.6199265,30.8925179 25.2503244,30.8925179 C23.8813679,30.8925179 22.7674162,29.7677025 22.7674162,28.3855445 C22.7674162,27.0037123 23.8813679,25.8798742 25.2503244,25.8798742 C26.6199265,25.8798742 27.7338782,27.0037123 27.7338782,28.3855445 L27.7338782,28.3855445 Z M28.4378853,8.16134489 L40.6745686,15.2903875 C40.5264075,15.7549072 40.4447414,16.2497217 40.4447414,16.7634298 C40.4447414,17.2185028 40.5118819,17.6569625 40.6290551,18.0749 L28.6748139,25.0309692 C28.0402068,24.3716509 27.2225773,23.8957299 26.3045597,23.6865982 L26.1531708,9.49464036 C27.0376181,9.27247874 27.8245825,8.80339848 28.4378853,8.16134489 L28.4378853,8.16134489 Z M50,16.7634298 C50,14.1049826 47.8563451,11.9416757 45.2220479,11.9416757 C43.923137,11.9416757 42.7452727,12.4697167 41.883098,13.3209019 L29.587344,6.15700406 C29.7090362,5.73222583 29.7777907,5.28529659 29.7777907,4.82110259 C29.7777907,2.16265541 27.6341358,0 24.9998386,0 C22.3658642,0 20.2218865,2.16265541 20.2218865,4.82110259 C20.2218865,5.28529659 20.2909638,5.73287733 20.412656,6.15732981 L8.1162564,13.3209019 C7.25408169,12.4697167 6.07621741,11.9416757 4.7773065,11.9416757 C2.14300932,11.9416757 0,14.1049826 0,16.7634298 C0,19.0221815 1.5493967,20.9180475 3.63010736,21.4385963 L3.63010736,35.4611641 C1.5493967,35.9820386 0,37.8775789 0,40.1366563 C0,42.7951035 2.14300932,44.9584104 4.7773065,44.9584104 C6.11721186,44.9584104 7.32800083,44.3964914 8.19695414,43.4967694 L20.412656,50.6150622 C20.2909638,51.0395147 20.2218865,51.4864439 20.2218865,51.9506379 C20.2218865,54.6090851 22.3658642,56.772392 24.9998386,56.772392 C27.6341358,56.772392 29.7777907,54.6090851 29.7777907,51.9506379 C29.7777907,51.4864439 29.7090362,51.0395147 29.587344,50.6144107 L41.8030459,43.4967694 C42.6713536,44.3964914 43.8821426,44.9571074 45.2220479,44.9571074 C47.8563451,44.9571074 50,42.794452 50,40.1356791 C50,37.8769274 48.4499577,35.9810614 46.3692471,35.4611641 L46.3692471,21.4385963 C48.4499577,20.9180475 50,19.0221815 50,16.7634298 L50,16.7634298 Z" fill="url(#linear-gradient-hex)"></path>
</svg>
