<svg viewBox="0 0 401.67 168">
  <g style="fill: #ffffff; stroke: #ffffff">
    <path d="M 137.07 50.5 C 135.711 50.244 134.403 51.141 134.15 52.5 C 134.04 53.08 128.06 84.03 113.75 112.57 L 82.32 52.8 C 81.423 51.095 79.017 51 77.989 52.629 C 77.511 53.385 77.474 54.339 77.89 55.13 L 110.89 117.96 C 98.65 140.41 81 160 56.61 160 C 54.685 160 53.483 162.083 54.445 163.75 C 54.892 164.523 55.717 165 56.61 165 C 79.27 165 99.51 149.48 115.61 120 L 116.33 118.68 C 118.003 115.547 119.63 112.257 121.21 108.81 C 129.138 91.052 135.129 72.492 139.08 53.45 C 139.354 52.077 138.448 50.747 137.07 50.5 Z"/>
    <path d="M 258.07 56.06 C 255.078 52.967 250.91 51.294 246.61 51.46 C 235.02 51.46 222.75 60.37 216.44 65.7 L 216.44 54 C 216.44 52.076 214.357 50.873 212.69 51.835 C 211.917 52.282 211.44 53.107 211.44 54 L 211.44 116.43 C 211.44 118.354 213.523 119.557 215.19 118.595 C 215.964 118.148 216.44 117.323 216.44 116.43 L 216.44 72.43 C 219.8 69.28 234.18 56.48 246.61 56.48 C 249.526 56.314 252.373 57.407 254.43 59.48 C 258.81 64.08 258.43 72.48 258.43 72.54 C 258.43 72.6 258.43 72.63 258.43 72.67 L 258.43 116.34 C 258.43 118.265 260.513 119.467 262.18 118.505 C 262.953 118.058 263.43 117.233 263.43 116.34 L 263.43 72.74 C 263.48 71.71 263.73 62 258.07 56.06 Z"/>
    <path d="M 395.61 51.34 L 376 51.34 L 376 14.63 C 376 12.705 373.917 11.503 372.25 12.465 C 371.477 12.912 371 13.737 371 14.63 L 371 51.34 L 351.61 51.34 C 349.685 51.34 348.483 53.423 349.445 55.09 C 349.892 55.864 350.717 56.34 351.61 56.34 L 371 56.34 L 371 98.68 L 371 98.68 C 371.022 110.72 380.78 120.473 392.82 120.49 C 394.745 120.49 395.947 118.407 394.985 116.74 C 394.538 115.966 393.713 115.49 392.82 115.49 C 383.535 115.479 376.011 107.955 376 98.67 L 376 56.34 L 395.61 56.34 C 397.535 56.34 398.737 54.257 397.775 52.59 C 397.328 51.816 396.503 51.34 395.61 51.34 Z"/>
    <path d="M 25 120.67 C 23.893 120.67 22.767 120.627 21.62 120.54 C 21.26 120.54 12.27 119.83 6.71 112.09 C 2.11 105.65 1.33 96.5 4.41 84.87 C 8.1 71 19.35 60.77 37 55.4 C 44.386 53.199 52.012 51.9 59.71 51.53 C 59.59 45.87 59.22 42.18 59.21 42.05 L 59.21 41.93 C 59.21 41.69 57.71 17.93 45.05 17.7 L 45.05 17.7 C 44.4 17.7 30.36 17.91 24.89 34.54 C 24.297 36.395 21.918 36.913 20.608 35.472 C 20 34.803 19.795 33.861 20.07 33 C 23.53 22.45 30.09 17.5 35 15.19 C 38.141 13.672 41.564 12.824 45.05 12.7 C 62.12 12.97 64.05 39.7 64.14 41.59 C 64.894 50.424 64.894 59.306 64.14 68.14 C 62.49 87.75 57.33 102.14 48.78 110.95 C 42.55 117.4 34.55 120.67 25 120.67 Z M 59.7 56.54 C 50.11 57 16 60.65 9.25 86.16 C 6.58 96.24 7.09 103.96 10.75 109.16 C 14.9 114.99 21.93 115.59 22 115.59 C 31.5 116.32 39.32 113.59 45.24 107.5 C 57.2 95.15 59.55 71.76 59.7 56.54 Z"/>
    <path d="M 314.7 120.49 C 304.01 120.506 293.902 115.623 287.27 107.24 C 283.38 102.411 280.868 96.62 280 90.48 C 276.116 63.818 302.551 42.951 327.583 52.918 C 330.911 54.243 334.016 56.072 336.79 58.34 C 338.136 59.443 337.971 61.55 336.47 62.43 L 285.47 92.36 C 288.698 106.091 301.056 115.719 315.16 115.49 C 325.126 115.315 334.361 110.224 339.83 101.89 C 339.96 101.69 340.24 101.21 340.54 100.68 C 341.197 99.526 342.642 99.086 343.83 99.68 L 343.83 99.68 C 345.12 100.312 345.614 101.898 344.91 103.15 C 344.62 103.66 344.37 104.15 344.25 104.29 C 337.911 114.215 327.025 120.308 315.25 120.52 Z M 314.7 55.49 L 314.24 55.49 C 297.675 55.742 284.45 69.375 284.7 85.94 C 284.7 86.293 284.7 86.647 284.7 87 L 330.64 60.06 C 325.866 57.064 320.346 55.47 314.71 55.46 Z"/>
    <path d="M 150.07 165.89 C 149.888 165.89 149.707 165.87 149.53 165.83 C 148.173 165.532 147.32 164.184 147.63 162.83 L 182.71 4.75 C 183.178 2.883 185.491 2.223 186.874 3.561 C 187.48 4.148 187.749 5.001 187.59 5.83 L 152.5 163.93 C 152.248 165.071 151.239 165.885 150.07 165.89 Z"/>
  </g>
</svg>
