<svg id="Layer_1" data-name="Layer 1" xmlns="http://www.w3.org/2000/svg" viewBox="0 0 401.67 168"><defs><style>.cls-1{fill:#1b1b63;}.cls-2{fill:#9090b2;}</style></defs><title>logotype_color</title><path class="cls-1" d="M137.07,50.5a2.5,2.5,0,0,0-2.92,2c-.11.58-6.09,31.53-20.4,60.07L82.32,52.8a2.5,2.5,0,0,0-4.43,2.33l33,62.83C98.65,140.41,81,160,56.61,160a2.5,2.5,0,1,0,0,5c22.66,0,42.9-15.52,59-45l.72-1.32q2.51-4.7,4.88-9.87a270.74,270.74,0,0,0,17.87-55.36A2.5,2.5,0,0,0,137.07,50.5Z"/><path class="cls-1" d="M258.07,56.06a15.13,15.13,0,0,0-11.46-4.6c-11.59,0-23.86,8.91-30.17,14.24V54a2.5,2.5,0,0,0-5,0v62.43a2.5,2.5,0,0,0,5,0v-44c3.36-3.15,17.74-15.95,30.17-15.95a10.2,10.2,0,0,1,7.82,3c4.38,4.6,4,13,4,13.06s0,.09,0,.13v43.67a2.5,2.5,0,0,0,5,0V72.74C263.48,71.71,263.73,62,258.07,56.06Z"/><path class="cls-1" d="M395.61,51.34H376V14.63a2.5,2.5,0,1,0-5,0V51.34H351.61a2.5,2.5,0,0,0,0,5H371V98.68h0a21.85,21.85,0,0,0,21.82,21.81,2.5,2.5,0,0,0,0-5A16.84,16.84,0,0,1,376,98.67V56.34h19.61a2.5,2.5,0,0,0,0-5Z"/><path class="cls-1" d="M25,120.67q-1.66,0-3.38-.13c-.36,0-9.35-.71-14.91-8.45C2.11,105.65,1.33,96.5,4.41,84.87,8.1,71,19.35,60.77,37,55.4a95.62,95.62,0,0,1,22.71-3.87c-.12-5.66-.49-9.35-.5-9.48v-.12c0-.24-1.5-24-14.16-24.23h0c-.65,0-14.69.21-20.16,16.84A2.5,2.5,0,1,1,20.07,33C23.53,22.45,30.09,17.5,35,15.19A25.16,25.16,0,0,1,45.05,12.7c17.07.27,19,27,19.09,28.89a156.12,156.12,0,0,1,0,26.55c-1.65,19.61-6.81,34-15.36,42.81C42.55,117.4,34.55,120.67,25,120.67ZM59.7,56.54C50.11,57,16,60.65,9.25,86.16c-2.67,10.08-2.16,17.8,1.5,23,4.15,5.83,11.18,6.43,11.25,6.43,9.5.73,17.32-2,23.24-8.09C57.2,95.15,59.55,71.76,59.7,56.54Z"/><path class="cls-1" d="M314.7,120.49a34.91,34.91,0,0,1-27.43-13.25A34.4,34.4,0,0,1,280,90.48a35,35,0,0,1,56.79-32.14,2.5,2.5,0,0,1-.32,4.09l-51,29.93a30,30,0,0,0,29.69,23.13,30.14,30.14,0,0,0,24.67-13.6c.13-.2.41-.68.71-1.21a2.5,2.5,0,0,1,3.29-1h0a2.5,2.5,0,0,1,1.08,3.47c-.29.51-.54,1-.66,1.14a35.16,35.16,0,0,1-29,16.23Zm0-65h-.46A30,30,0,0,0,284.7,85.94q0,.53,0,1.06l45.94-26.94A30.06,30.06,0,0,0,314.71,55.46Z"/><path class="cls-2" d="M150.07,165.89a2.47,2.47,0,0,1-.54-.06,2.5,2.5,0,0,1-1.9-3L182.71,4.75a2.5,2.5,0,0,1,4.88,1.08L152.5,163.93A2.5,2.5,0,0,1,150.07,165.89Z"/></svg>