<svg viewBox="0 0 300 126" width="300px" height="126px">
  <g>
    <path d="M 129.6 34.3 C 123.3 63 118.8 83.5 112.4 111.3 C 111.1 117.2 110 122.5 110 123 C 110 124.2 112.7 124.3 113.4 123.2 C 113.7 122.7 116.2 112.1 119 99.4 C 124.1 76.1 130.5 47.7 134.1 31.5 C 137.2 18.2 140 4.8 140 3.8 C 140 3.4 139.2 3 138.3 3 C 136.8 3 135.4 7.8 129.6 34.3 Z" style="fill: rgb(144, 144, 177);"/>
    <path d="M 277.7 9.7 C 277.3 10 277 16.8 277 24.7 L 277 39 L 268.9 39 C 261.8 39 260.9 39.2 261.2 40.7 C 261.5 42.2 262.7 42.5 269.3 42.5 L 277 42.5 L 277 60.3 C 277 78.4 277.6 81.7 281.4 85.6 C 283.6 87.8 288.9 90 292 90 C 296.6 90 295.7 87.4 290.6 86.1 C 281.4 83.8 279.6 78.5 280.2 55.6 L 280.5 42.6 L 286.7 42.9 C 294 43.2 297 42.5 297 40.4 C 297 39.3 295.2 39 288.5 39 L 280 39 L 280 24 C 280 10.3 279.6 7.7 277.7 9.7 Z" style="fill: rgb(27, 28, 98);"/>
    <path d="M 26 12.2 C 21.2 14.7 15 21.9 15 25.1 C 15 28.5 17.6 27.1 20.7 22.2 C 25.5 14.5 34.4 11.5 38.7 16.2 C 41.5 19.3 43.8 26.4 44.3 33.1 L 44.6 38.6 L 37.2 39.8 C 21 42.4 10.6 48.4 5.5 58.4 C 2.9 63.5 2.5 65.4 2.5 72.4 C 2.5 79.3 2.8 81 4.8 83.8 C 8 88.3 12.5 90.3 19 90.3 C 31.8 90.3 40.5 82.2 45.7 65.5 C 47.1 60.6 47.5 56.2 47.5 42 C 47.5 26 47.3 24.1 45.3 20 C 42.7 14.6 41.2 12.7 38.3 11.2 C 35 9.4 30.9 9.8 26 12.2 Z M 43.9 51.7 C 42.6 67.5 38 78.1 30.3 83 C 21.6 88.6 11.6 87.7 7.7 81 C 3.5 73.9 6.9 59.8 14.5 53.1 C 20.5 47.9 32.8 43.2 41 43.1 L 44.5 43 L 43.9 51.7 Z" style="fill: rgb(27, 28, 98);"/>
    <path d="M 98.8 45.2 C 96.3 55.5 91.7 69.3 88 77.5 L 84.9 84.4 L 75 65.5 C 61.9 40.4 61.4 39.6 59.6 39.2 C 57 38.6 57.7 40.7 64.9 54.4 C 68.7 61.6 74.3 72.3 77.3 78.1 L 82.9 88.7 L 78.7 95.1 C 73.4 103.3 63.6 113 57.8 115.9 C 55.2 117.1 50.3 118.7 46.8 119.4 C 42.7 120.2 40.5 121.2 40.5 122.1 C 40.5 123.1 41.8 123.4 45.4 123.1 C 65.9 121.9 84.7 100.8 96.7 65.5 C 102.9 47.4 104.6 38.8 102 38.3 C 100.9 38 100 39.9 98.8 45.2 Z" style="fill: rgb(27, 28, 98);"/>
    <path d="M 228 38.9 C 220.5 41.3 213.3 47.7 210.6 54.4 C 209.7 56.5 209 61 209 64.4 C 209 84.1 229.4 96 247.4 87 C 251.8 84.8 258 78.2 258 75.8 C 258 73.7 254.6 75.4 250.7 79.4 C 242.4 88 229.9 88.9 221.1 81.3 C 215.9 76.9 212.2 70.1 214.2 68.9 C 214.9 68.4 223.7 63.2 233.8 57.3 C 246.2 50 252 46.1 251.8 45 C 251.6 44.2 249.5 42.5 247.2 41.1 C 242.5 38.6 232.5 37.4 228 38.9 Z M 242.1 43.2 C 244.3 43.8 246 44.7 246 45.1 C 246 45.6 244.5 46.7 242.8 47.6 C 241 48.5 233.5 52.9 226.2 57.2 C 218.8 61.6 212.6 64.9 212.2 64.6 C 211.9 64.2 212.4 61.5 213.4 58.4 C 217.4 45.9 229.6 39.4 242.1 43.2 Z" style="fill: rgb(27, 28, 98);"/>
    <path d="M 158 64 C 158 87.4 158.1 89.1 159.8 88.8 C 161.3 88.5 161.5 86.8 161.7 71.5 L 161.8 54.5 L 165.7 51.1 C 173.7 44 185.6 40.8 189.5 44.7 C 192.5 47.7 193 51 193 70.1 C 193 87.7 193.1 89.1 194.8 88.8 C 196.3 88.5 196.5 86.7 196.5 68.5 C 196.5 46.3 195.9 43.5 190 40.5 C 184.1 37.4 177.1 38.9 167.6 45.1 C 164.4 47.3 161.6 49 161.5 49 C 161.3 49 161.2 46.9 161.3 44.3 C 161.5 40.5 161.1 39.5 159.8 39.2 C 158.1 38.9 158 40.6 158 64 Z" style="fill: rgb(27, 28, 98);"/>
  </g>
</svg>
