<?xml version="1.0" encoding="UTF-8"?>
<svg width="74px" height="55px" viewBox="0 0 74 55" version="1.1" xmlns="http://www.w3.org/2000/svg" xmlns:xlink="http://www.w3.org/1999/xlink">
    <!-- Generator: Sketch 46.2 (44496) - http://www.bohemiancoding.com/sketch -->
    <title>Group 27</title>
    <desc>Created with Sketch.</desc>
    <defs>
        <linearGradient x1="100%" y1="0%" x2="-9.79523549%" y2="109.413207%" id="linearGradient-1">
            <stop stop-color="#6A11CB" offset="0%"></stop>
            <stop stop-color="#2575FC" offset="100%"></stop>
        </linearGradient>
    </defs>
    <g id="Page-1" stroke="none" stroke-width="1" fill="none" fill-rule="evenodd">
        <g id="Group-27" transform="translate(6.000000, 2.000000)">
            <g id="Group-24" transform="translate(15.391998, 29.723131) rotate(-20.000000) translate(-15.391998, -29.723131) translate(7.391998, 9.223131)">
                <path d="M0.943270889,-0.027168746 L16.3422422,-0.464129536 L5.54317797,29.4320964 C5.35587085,29.950639 5.62359392,30.5229549 6.14167951,30.7115226 L7.72806263,31.2889189 C8.62903305,31.6168453 9.09357699,32.613063 8.76565058,33.5140334 L8.75147773,33.552973 L18.2589118,41.6534825 L0.928536086,41.0338386 C-0.147533662,40.995364 -1,40.1118731 -1,39.0351158 L-1,1.97202654 C-1,0.889549583 -0.138770533,0.00353523196 0.943270889,-0.027168746 Z" id="Rectangle-21" stroke="url(#linearGradient-1)" stroke-width="2"></path>
                <path d="M12.3162688,8.22472805 L3,8.60869565 L3,6 L12.3162688,5.6160324 L13.1093722,5.6160324 L13.1093722,8.22472805 L12.3162688,8.22472805 Z M8.91424552,17.5717102 L3,17.7391304 L3,15.1304348 L8.91424552,14.9630145 L9.70734897,14.9630145 L9.70734897,17.5717102 L8.91424552,17.5717102 Z M5.16019967,26.8343239 L3,26.8695652 L3,24.2608696 L5.16019967,24.2256282 L6.90696982,24.2141461 L5.95330312,26.8343239 L5.16019967,26.8343239 Z M9.83877405,35.8351975 L3,36 L3,33.3913043 L9.83877405,33.2265018 L10.6318775,35.8351975 L9.83877405,35.8351975 Z" id="Combined-Shape" fill="url(#linearGradient-1)"></path>
            </g>
            <g id="Group-24" transform="translate(17.000000, 0.000000)">
                <path d="M-1,-1 L30,-1 L30,7.7262267 L17.9104474,3.14459685 C17.394005,2.94887845 16.8166846,3.20887662 16.6209662,3.72531902 C16.6182815,3.73245779 16.6182815,3.73245779 16.6156696,3.73962349 L3.50287542,40 L-1,40 L-1,-1 Z" id="Rectangle-21" stroke="url(#linearGradient-1)" stroke-width="2" stroke-linejoin="round"></path>
                <path d="M14.8878705,7.60869565 L3,7.60869565 L3,5 L14.8878705,5 L15.6809739,5 L15.6809739,7.60869565 L14.8878705,7.60869565 Z M11.5492056,16.7391304 L3,16.7391304 L3,14.1304348 L11.5492056,14.1304348 L12.3423091,14.1304348 L12.3423091,16.7391304 L11.5492056,16.7391304 Z M7.45689655,25.8695652 L3,25.8695652 L3,23.2608696 L7.45689655,23.2608696 L8.25,23.2608696 L8.25,25.8695652 L7.45689655,25.8695652 Z M4.83189655,35 L3,35 L3,32.3913043 L4.83189655,32.3913043 L5.625,32.3913043 L5.625,35 L4.83189655,35 Z" id="Combined-Shape" fill="url(#linearGradient-1)"></path>
            </g>
            <g id="Group-24" transform="translate(41.500000, 27.500000) rotate(20.000000) translate(-41.500000, -27.500000) translate(27.000000, 8.000000)">
                <rect id="Rectangle-21" stroke="url(#linearGradient-1)" stroke-width="2" stroke-linejoin="round" x="-1" y="-1" width="31" height="41"></rect>
                <path d="M25.2068966,6.52173913 L3,6.52173913 L3,4 L25.2068966,4 L26,4 L26,6.52173913 L25.2068966,6.52173913 Z M25.2068966,15.3478261 L3,15.3478261 L3,12.826087 L25.2068966,12.826087 L26,12.826087 L26,15.3478261 L25.2068966,15.3478261 Z M25.2068966,24.173913 L3,24.173913 L3,21.6521739 L25.2068966,21.6521739 L26,21.6521739 L26,24.173913 L25.2068966,24.173913 Z M25.2068966,33 L3,33 L3,30.4782609 L25.2068966,30.4782609 L26,30.4782609 L26,33 L25.2068966,33 Z" id="Combined-Shape" fill="url(#linearGradient-1)"></path>
            </g>
        </g>
    </g>
</svg>